0
SECTION
2
HEADER
9
$INSUNITS
70
4
9
$ACADVER
1
AC1014
9
$HANDSEED
5
FFFF
0
ENDSEC
0
SECTION
2
TABLES
0
TABLE
2
VPORT
5
8
100
AcDbSymbolTable
0
ENDTAB
0
TABLE
2
LTYPE
5
5
100
AcDbSymbolTable
0
LTYPE
5
14
100
AcDbSymbolTableRecord
100
AcDbLinetypeTableRecord
2
BYBLOCK
70
0
0
LTYPE
5
15
100
AcDbSymbolTableRecord
100
AcDbLinetypeTableRecord
2
BYLAYER
70
0
0
ENDTAB
0
TABLE
2
LAYER
5
2
100
AcDbSymbolTable
70
2
0
LAYER
5
50
100
AcDbSymbolTableRecord
100
AcDbLayerTableRecord
2
0
70
0
6
CONTINUOUS
0
ENDTAB
0
TABLE
2
STYLE
5
3
100
AcDbSymbolTable
70
1
0
STYLE
5
11
100
AcDbSymbolTableRecord
100
AcDbTextStyleTableRecord
2
STANDARD
70
0
0
ENDTAB
0
TABLE
2
VIEW
5
6
100
AcDbSymbolTable
70
0
0
ENDTAB
0
TABLE
2
UCS
5
7
100
AcDbSymbolTable
70
0
0
ENDTAB
0
TABLE
2
APPID
5
9
100
AcDbSymbolTable
70
2
0
APPID
5
12
100
AcDbSymbolTableRecord
100
AcDbRegAppTableRecord
2
ACAD
70
0
0
ENDTAB
0
TABLE
2
DIMSTYLE
5
A
100
AcDbSymbolTable
70
1
0
ENDTAB
0
TABLE
2
BLOCK_RECORD
5
1
100
AcDbSymbolTable
70
1
0
BLOCK_RECORD
5
1F
100
AcDbSymbolTableRecord
100
AcDbBlockTableRecord
2
*MODEL_SPACE
0
BLOCK_RECORD
5
1B
100
AcDbSymbolTableRecord
100
AcDbBlockTableRecord
2
*PAPER_SPACE
0
ENDTAB
0
ENDSEC
0
SECTION
2
BLOCKS
0
BLOCK
5
20
100
AcDbEntity
100
AcDbBlockBegin
2
*MODEL_SPACE
0
ENDBLK
5
21
100
AcDbEntity
100
AcDbBlockEnd
0
BLOCK
5
1C
100
AcDbEntity
100
AcDbBlockBegin
2
*PAPER_SPACE
0
ENDBLK
5
1D
100
AcDbEntity
100
AcDbBlockEnd
0
ENDSEC
0
SECTION
2
ENTITIES
0
LWPOLYLINE
5
100
100
AcDbEntity
8
0
100
AcDbPolyline
90
48
70
1
43
0.0
10
-203.05268365239797
20
192.88959984819593
42
0.18839084225724417
10
-192.88959984819564
20
203.05268365239786
42
-0.29781797884619438
10
-191.05774315233401
20
204.24999999999997
10
-166.25
20
204.24999999999997
42
0.41421356237309503
10
-164.25
20
206.25
10
-164.25
20
219.25
42
-0.41421356237309503
10
-162.25
20
221.25
10
162.25
20
221.25
42
-0.41421356237309503
10
164.25
20
219.25
10
164.25
20
206.25
42
0.41421356237309503
10
166.25
20
204.24999999999997
10
191.05774315233401
20
204.24999999999986
42
-0.2978179788461971
10
192.88959984819556
20
203.0526836523978
42
0.18839084225725042
10
203.05268365239786
20
192.88959984819564
42
-0.29781797884619399
10
204.24999999999997
20
191.05774315233401
10
204.24999999999997
20
166.25
42
0.41421356237309503
10
206.25
20
164.25
10
219.25
20
164.25
42
-0.41421356237309503
10
221.25
20
162.25
10
221.25
20
-162.25
42
-0.41421356237309503
10
219.25
20
-164.25
10
206.25
20
-164.25
42
0.41421356237309503
10
204.24999999999997
20
-166.25
10
204.24999999999898
20
-191.05774315233501
42
-0.297817978846318
10
203.05268365239664
20
-192.8895998481961
42
0.18839084225723376
10
192.88959984819564
20
-203.05268365239786
42
-0.29781797884619399
10
191.05774315233401
20
-204.24999999999997
10
166.25
20
-204.24999999999997
42
0.41421356237309503
10
164.25
20
-206.25
10
164.25
20
-219.25
42
-0.41421356237309503
10
162.25
20
-221.25
10
-162.25
20
-221.25
42
-0.41421356237309503
10
-164.25
20
-219.25
10
-164.25
20
-206.25
42
0.41421356237309503
10
-166.25
20
-204.24999999999997
10
-191.05774315233401
20
-204.25000000000026
42
-0.29781797884619438
10
-192.88959984819593
20
-203.05268365239797
42
0.18839084225724417
10
-203.05268365239786
20
-192.88959984819564
42
-0.29781797884619438
10
-204.24999999999997
20
-191.05774315233401
10
-204.24999999999997
20
-166.25
42
0.41421356237309503
10
-206.25
20
-164.25
10
-219.25
20
-164.25
42
-0.41421356237309503
10
-221.25
20
-162.25
10
-221.25
20
162.25
42
-0.41421356237309503
10
-219.25
20
164.25
10
-206.25
20
164.25
42
0.41421356237309503
10
-204.24999999999997
20
166.25
10
-204.25000000000026
20
191.05774315233401
42
-0.29781797884619438
0
CIRCLE
5
101
100
AcDbEntity
8
0
100
AcDbCircle
10
160.14999999999998
20
-212.5
30
0
40
1.7500000000000002
210
-0
220
0
230
1
0
CIRCLE
5
102
100
AcDbEntity
8
0
100
AcDbCircle
10
-212.5
20
160.14999999999998
30
0
40
1.7500000000000002
210
-0
220
0
230
1
0
CIRCLE
5
103
100
AcDbEntity
8
0
100
AcDbCircle
10
-212.5
20
-20.780253405868798
30
0
40
1.7500000000000002
210
0
220
0
230
1
0
CIRCLE
5
104
100
AcDbEntity
8
0
100
AcDbCircle
10
-160.14999999999998
20
212.5
30
0
40
1.7500000000000002
210
-0
220
0
230
1
0
CIRCLE
5
105
100
AcDbEntity
8
0
100
AcDbCircle
10
-20.780253405868997
20
212.5
30
0
40
1.7500000000000002
210
-0
220
0
230
1
0
CIRCLE
5
106
100
AcDbEntity
8
0
100
AcDbCircle
10
-212.5
20
20.780253405868798
30
0
40
1.7500000000000002
210
-0
220
0
230
1
0
CIRCLE
5
107
100
AcDbEntity
8
0
100
AcDbCircle
10
-212.5
20
-160.14999999999998
30
0
40
1.7500000000000002
210
0
220
0
230
1
0
CIRCLE
5
108
100
AcDbEntity
8
0
100
AcDbCircle
10
-160.14999999999998
20
-212.5
30
0
40
1.7500000000000002
210
0
220
0
230
1
0
CIRCLE
5
109
100
AcDbEntity
8
0
100
AcDbCircle
10
-20.780253405868901
20
-212.5
30
0
40
1.7500000000000002
210
0
220
0
230
1
0
CIRCLE
5
110
100
AcDbEntity
8
0
100
AcDbCircle
10
20.780253405868901
20
-212.5
30
0
40
1.7500000000000002
210
-0
220
0
230
1
0
CIRCLE
5
111
100
AcDbEntity
8
0
100
AcDbCircle
10
212.5
20
-160.14999999999998
30
0
40
1.7500000000000002
210
-0
220
0
230
1
0
CIRCLE
5
112
100
AcDbEntity
8
0
100
AcDbCircle
10
212.5
20
20.780253405868997
30
0
40
1.7500000000000002
210
0
220
0
230
1
0
CIRCLE
5
113
100
AcDbEntity
8
0
100
AcDbCircle
10
212.5
20
160.14999999999998
30
0
40
1.7500000000000002
210
0
220
0
230
1
0
CIRCLE
5
114
100
AcDbEntity
8
0
100
AcDbCircle
10
20.780253405868798
20
212.5
30
0
40
1.7500000000000002
210
0
220
0
230
1
0
CIRCLE
5
115
100
AcDbEntity
8
0
100
AcDbCircle
10
160.14999999999998
20
212.5
30
0
40
1.7500000000000002
210
0
220
0
230
1
0
CIRCLE
5
116
100
AcDbEntity
8
0
100
AcDbCircle
10
212.5
20
-20.780253405868798
30
0
40
1.7500000000000002
210
-0
220
0
230
1
0
ENDSEC
0
SECTION
2
OBJECTS
0
DICTIONARY
5
C
100
AcDbDictionary
3
ACAD_GROUP
350
D
3
ACAD_MLINESTYLE
350
17
0
DICTIONARY
5
D
100
AcDbDictionary
0
DICTIONARY
5
1A
330
C
100
AcDbDictionary
0
DICTIONARY
5
17
100
AcDbDictionary
0
ENDSEC
0
EOF
