0
SECTION
2
HEADER
9
$INSUNITS
70
4
9
$ACADVER
1
AC1014
9
$HANDSEED
5
FFFF
0
ENDSEC
0
SECTION
2
TABLES
0
TABLE
2
VPORT
5
8
100
AcDbSymbolTable
0
ENDTAB
0
TABLE
2
LTYPE
5
5
100
AcDbSymbolTable
0
LTYPE
5
14
100
AcDbSymbolTableRecord
100
AcDbLinetypeTableRecord
2
BYBLOCK
70
0
0
LTYPE
5
15
100
AcDbSymbolTableRecord
100
AcDbLinetypeTableRecord
2
BYLAYER
70
0
0
ENDTAB
0
TABLE
2
LAYER
5
2
100
AcDbSymbolTable
70
2
0
LAYER
5
50
100
AcDbSymbolTableRecord
100
AcDbLayerTableRecord
2
0
70
0
6
CONTINUOUS
0
ENDTAB
0
TABLE
2
STYLE
5
3
100
AcDbSymbolTable
70
1
0
STYLE
5
11
100
AcDbSymbolTableRecord
100
AcDbTextStyleTableRecord
2
STANDARD
70
0
0
ENDTAB
0
TABLE
2
VIEW
5
6
100
AcDbSymbolTable
70
0
0
ENDTAB
0
TABLE
2
UCS
5
7
100
AcDbSymbolTable
70
0
0
ENDTAB
0
TABLE
2
APPID
5
9
100
AcDbSymbolTable
70
2
0
APPID
5
12
100
AcDbSymbolTableRecord
100
AcDbRegAppTableRecord
2
ACAD
70
0
0
ENDTAB
0
TABLE
2
DIMSTYLE
5
A
100
AcDbSymbolTable
70
1
0
ENDTAB
0
TABLE
2
BLOCK_RECORD
5
1
100
AcDbSymbolTable
70
1
0
BLOCK_RECORD
5
1F
100
AcDbSymbolTableRecord
100
AcDbBlockTableRecord
2
*MODEL_SPACE
0
BLOCK_RECORD
5
1B
100
AcDbSymbolTableRecord
100
AcDbBlockTableRecord
2
*PAPER_SPACE
0
ENDTAB
0
ENDSEC
0
SECTION
2
BLOCKS
0
BLOCK
5
20
100
AcDbEntity
100
AcDbBlockBegin
2
*MODEL_SPACE
0
ENDBLK
5
21
100
AcDbEntity
100
AcDbBlockEnd
0
BLOCK
5
1C
100
AcDbEntity
100
AcDbBlockBegin
2
*PAPER_SPACE
0
ENDBLK
5
1D
100
AcDbEntity
100
AcDbBlockEnd
0
ENDSEC
0
SECTION
2
ENTITIES
0
CIRCLE
5
100
100
AcDbEntity
8
0
100
AcDbCircle
10
-200.00000000000006
20
91.999999999999957
30
0
40
1.6500000000000004
210
0
220
-0
230
1
0
CIRCLE
5
101
100
AcDbEntity
8
0
100
AcDbCircle
10
-200
20
558
30
0
40
1.6500000000000004
210
0
220
-0
230
1
0
CIRCLE
5
102
100
AcDbEntity
8
0
100
AcDbCircle
10
-200
20
596
30
0
40
1.6500000000000004
210
0
220
-0
230
1
0
CIRCLE
5
103
100
AcDbEntity
8
0
100
AcDbCircle
10
215
20
368.08112630907175
30
0
40
2.1960824891961295
210
0
220
-0
230
1
0
CIRCLE
5
104
100
AcDbEntity
8
0
100
AcDbCircle
10
-200.00000000000006
20
53.999999999999986
30
0
40
1.6500000000000004
210
0
220
-0
230
1
0
CIRCLE
5
105
100
AcDbEntity
8
0
100
AcDbCircle
10
215
20
281.91887369092746
30
0
40
2.1960824891961295
210
0
220
-0
230
1
0
CIRCLE
5
106
100
AcDbEntity
8
0
100
AcDbCircle
10
-199.99999999999997
20
306
30
0
40
1.6500000000000004
210
0
220
-0
230
1
0
CIRCLE
5
107
100
AcDbEntity
8
0
100
AcDbCircle
10
-199.99999999999994
20
344
30
0
40
1.6500000000000004
210
0
220
-0
230
1
0
LWPOLYLINE
5
108
100
AcDbEntity
8
0
100
AcDbPolyline
90
40
70
1
43
0.0
10
-212
20
605.00000000000011
10
-211.99999999999994
20
645
42
-0.41421356237312623
10
-210
20
647
10
210
20
647.00000000000023
42
-0.41421356237312623
10
212.00000000000003
20
645
10
212.00000000000003
20
378.0000000000004
42
0.41421356237309159
10
215
20
375.00000000000045
10
220.99999999999989
20
375.00000000000045
42
-0.41421356237310025
10
222.99999999999989
20
373.0000000000004
10
223
20
276.99999999999807
42
-0.41421356237311063
10
221.00000000000236
20
275.00000000000045
10
215.00000000000108
20
275.00000000000051
42
0.41421356237309503
10
212.00000000000088
20
272.00000000000034
10
212.00000000000088
20
5.0000000000000355
42
-0.41421356237310347
10
210.00000000000085
20
3.0000000000000062
10
-210
20
2.9999999999999618
42
-0.4142135623730972
10
-212
20
4.9999999999999689
10
-211.99999999999991
20
45.000000000000057
42
-0.41421356237309764
10
-209.99999999999994
20
47.000000000000064
10
-208.99999999999989
20
47.000000000000064
42
0.41421356237309115
10
-206.99999999999991
20
49.00000000000005
10
-206.99999999999989
20
96.999999999999886
42
0.41421356237309243
10
-208.99999999999991
20
98.999999999999901
10
-209.99999999999997
20
98.999999999999929
42
-0.41421356237308982
10
-211.99999999999994
20
100.99999999999989
10
-212
20
297.00000000000011
42
-0.41421356237310542
10
-210
20
299.00000000000011
10
-208.99999999999983
20
299.00000000000011
42
0.41421356237310542
10
-206.99999999999986
20
301.00000000000011
10
-206.99999999999986
20
348.99999999999989
42
0.41421356237309503
10
-208.99999999999989
20
350.99999999999994
10
-209.99999999999997
20
350.99999999999994
42
-0.41421356237309503
10
-212
20
353
10
-212
20
549
42
-0.41421356237309503
10
-209.99999999999997
20
551.00000000000011
10
-209.00000000000003
20
551.00000000000011
42
0.41421356237308982
10
-207.00000000000003
20
553.00000000000011
10
-207.00000000000003
20
601
42
0.41421356237309503
10
-209.0000000000002
20
603.00000000000011
10
-209.99999999999997
20
603.00000000000011
42
-0.41421356237309503
0
ENDSEC
0
SECTION
2
OBJECTS
0
DICTIONARY
5
C
100
AcDbDictionary
3
ACAD_GROUP
350
D
3
ACAD_MLINESTYLE
350
17
0
DICTIONARY
5
D
100
AcDbDictionary
0
DICTIONARY
5
1A
330
C
100
AcDbDictionary
0
DICTIONARY
5
17
100
AcDbDictionary
0
ENDSEC
0
EOF
