0
SECTION
2
HEADER
9
$INSUNITS
70
4
9
$ACADVER
1
AC1014
9
$HANDSEED
5
FFFF
0
ENDSEC
0
SECTION
2
TABLES
0
TABLE
2
VPORT
5
8
100
AcDbSymbolTable
0
ENDTAB
0
TABLE
2
LTYPE
5
5
100
AcDbSymbolTable
0
LTYPE
5
14
100
AcDbSymbolTableRecord
100
AcDbLinetypeTableRecord
2
BYBLOCK
70
0
0
LTYPE
5
15
100
AcDbSymbolTableRecord
100
AcDbLinetypeTableRecord
2
BYLAYER
70
0
0
ENDTAB
0
TABLE
2
LAYER
5
2
100
AcDbSymbolTable
70
2
0
LAYER
5
50
100
AcDbSymbolTableRecord
100
AcDbLayerTableRecord
2
0
70
0
6
CONTINUOUS
0
ENDTAB
0
TABLE
2
STYLE
5
3
100
AcDbSymbolTable
70
1
0
STYLE
5
11
100
AcDbSymbolTableRecord
100
AcDbTextStyleTableRecord
2
STANDARD
70
0
0
ENDTAB
0
TABLE
2
VIEW
5
6
100
AcDbSymbolTable
70
0
0
ENDTAB
0
TABLE
2
UCS
5
7
100
AcDbSymbolTable
70
0
0
ENDTAB
0
TABLE
2
APPID
5
9
100
AcDbSymbolTable
70
2
0
APPID
5
12
100
AcDbSymbolTableRecord
100
AcDbRegAppTableRecord
2
ACAD
70
0
0
ENDTAB
0
TABLE
2
DIMSTYLE
5
A
100
AcDbSymbolTable
70
1
0
ENDTAB
0
TABLE
2
BLOCK_RECORD
5
1
100
AcDbSymbolTable
70
1
0
BLOCK_RECORD
5
1F
100
AcDbSymbolTableRecord
100
AcDbBlockTableRecord
2
*MODEL_SPACE
0
BLOCK_RECORD
5
1B
100
AcDbSymbolTableRecord
100
AcDbBlockTableRecord
2
*PAPER_SPACE
0
ENDTAB
0
ENDSEC
0
SECTION
2
BLOCKS
0
BLOCK
5
20
100
AcDbEntity
100
AcDbBlockBegin
2
*MODEL_SPACE
0
ENDBLK
5
21
100
AcDbEntity
100
AcDbBlockEnd
0
BLOCK
5
1C
100
AcDbEntity
100
AcDbBlockBegin
2
*PAPER_SPACE
0
ENDBLK
5
1D
100
AcDbEntity
100
AcDbBlockEnd
0
ENDSEC
0
SECTION
2
ENTITIES
0
LWPOLYLINE
5
100
100
AcDbEntity
8
0
100
AcDbPolyline
90
46
70
1
43
0.0
10
-190.49999999999997
20
120.49999999999999
10
-185.00000000000043
20
120.49999999999999
42
0.043660942908509075
10
-181.44021235782819
20
120.81144106324972
10
-136.44131525227556
20
128.74596072508271
42
0.3152987888789674
10
-133.60225673856729
20
131.58501923879112
10
-124.81144106325002
20
181.44021235782782
42
0.043660942908508756
10
-124.50000000000028
20
185
10
-124.50000000000023
20
190.49999999999997
42
-0.41421356237312101
10
-123.5000000000002
20
191.5
10
123.5000000000003
20
191.5
42
-0.41421356237310025
10
124.50000000000028
20
190.5
10
124.50000000000037
20
185.00000000000003
42
0.043660942908508756
10
124.81144106325007
20
181.44021235782785
10
133.60225673856735
20
131.58501923879115
42
0.315298788878977
10
136.44131525227573
20
128.74596072508271
10
181.44021235782822
20
120.81144106324973
42
0.043660942908509394
10
185.00000000000045
20
120.5
10
190.49999999999994
20
120.49999999999999
42
-0.41421356237309503
10
191.49999999999991
20
119.50000000000001
10
191.50000000000006
20
-182.99999999999989
42
-0.41421356237309503
10
190.50000000000006
20
-183.99999999999991
10
165.00000000000003
20
-184
42
0.41421356237309503
10
164.00000000000003
20
-185
10
164.00000000000006
20
-190.49999999999997
42
-0.41421356237306384
10
163.00000000000009
20
-191.49999999999991
10
43.500000000000085
20
-191.50000000000003
42
-0.41421356237309503
10
40.500000000000085
20
-188.5
10
40.500000000000085
20
-185.00000000000003
42
0.076506905504386283
10
39.551197490338723
20
-178.83553111016229
10
26.186311983260889
20
-136.44752970173499
42
0.32733339675442974
10
22.848302655642115
20
-133.99999999999994
10
-22.848302655642044
20
-133.99999999999991
42
0.32733339675442974
10
-26.186311983260818
20
-136.44752970173499
10
-34.274949875515652
20
-162.10141159900849
42
-0.32733339675443135
10
-36.182383777012106
20
-163.49999999999997
10
-67.000000000000099
20
-163.49999999999991
42
0.41421356237309592
10
-70.000000000000114
20
-166.49999999999991
10
-70.000000000000099
20
-188.5
42
-0.41421356237309503
10
-73.000000000000099
20
-191.50000000000003
10
-162.99999999999997
20
-191.5
42
-0.41421356237309503
10
-163.99999999999994
20
-190.5
10
-163.99999999999994
20
-185.00000000000003
42
0.41421356237310542
10
-164.99999999999997
20
-184
10
-190.49999999999989
20
-184
42
-0.41421356237311585
10
-191.49999999999994
20
-183
10
-191.50000000000003
20
119.5
42
-0.41421356237312101
0
ENDSEC
0
SECTION
2
OBJECTS
0
DICTIONARY
5
C
100
AcDbDictionary
3
ACAD_GROUP
350
D
3
ACAD_MLINESTYLE
350
17
0
DICTIONARY
5
D
100
AcDbDictionary
0
DICTIONARY
5
1A
330
C
100
AcDbDictionary
0
DICTIONARY
5
17
100
AcDbDictionary
0
ENDSEC
0
EOF
